<svg width="18" height="17" viewBox="0 0 18 17" fill="none" xmlns="http://www.w3.org/2000/svg">
<path id="Vector" d="M11.068 11.7835L12.2502 10.6747C12.4321 10.5021 12.6487 10.3649 12.8875 10.2713C13.1263 10.1778 13.3825 10.1297 13.6412 10.1297C13.9 10.1297 14.1562 10.1778 14.395 10.2713C14.6338 10.3649 14.8504 10.5021 15.0323 10.6747L16.4189 11.9753C16.603 12.1458 16.7492 12.3489 16.8489 12.5728C16.9487 12.7968 17 13.0371 17 13.2798C17 13.5226 16.9487 13.7629 16.8489 13.9869C16.7492 14.2108 16.603 14.4139 16.4189 14.5844L15.7878 15.1846C15.353 15.5965 14.7906 15.869 14.1808 15.9633C13.5711 16.0576 12.9452 15.969 12.3924 15.7099C7.63552 13.4133 3.76094 9.78235 1.30837 5.32286C1.03187 4.80386 0.937986 4.21599 1.0402 3.64378C1.14242 3.07157 1.43548 2.54445 1.87725 2.13831L2.5083 1.53812C2.87801 1.19348 3.3781 1 3.89936 1C4.42063 1 4.92072 1.19348 5.29042 1.53812L6.68593 2.84698C7.0534 3.19372 7.25964 3.66269 7.25964 4.15158C7.25964 4.64046 7.0534 5.10943 6.68593 5.45617L5.50374 6.56497C6.2854 7.55661 7.14401 8.49271 8.07255 9.36587C8.99568 10.2332 9.98819 11.0331 11.0413 11.7585L11.068 11.7835Z" stroke="#845DC2" stroke-width="2" stroke-linecap="round" stroke-linejoin="round"/>
</svg>
